<?xml version="1.0" standalone="no"?>
<!DOCTYPE svg PUBLIC "-//W3C//DTD SVG 20010904//EN"
 "http://www.w3.org/TR/2001/REC-SVG-20010904/DTD/svg10.dtd">
<svg version="1.0" xmlns="http://www.w3.org/2000/svg"
 width="1280.000000pt" height="1280.000000pt" viewBox="0 0 1280.000000 1280.000000"
 preserveAspectRatio="xMidYMid meet">
<metadata>
Created by potrace 1.14, written by Peter Selinger 2001-2017
</metadata>
<g transform="translate(0.000000,1280.000000) scale(0.100000,-0.100000)"
fill="#000000" stroke="none">
<path d="M2150 6400 l0 -3060 580 0 580 0 0 1240 0 1240 1029 0 c565 0 1048 3
1072 6 l45 6 139 332 c76 182 184 439 240 571 l102 240 -1314 3 -1313 2 0
1240 0 1240 -580 0 -580 0 0 -3060z"/>
<path d="M7127 9428 c-1228 -2912 -2547 -6061 -2547 -6077 0 -11 1140 -3 1152
8 9 8 1189 2812 2555 6069 l13 32 -580 0 -580 0 -13 -32z"/>
<path d="M8476 9429 c-8 -19 -152 -349 -321 -733 l-306 -699 380 -1076 c209
-591 378 -1077 375 -1081 -3 -3 -378 -6 -833 -8 l-828 -2 -241 -573 -241 -572
1279 -3 1280 -2 16 -38 c24 -58 210 -582 339 -960 l118 -342 578 0 c382 0 579
3 579 10 0 16 -1580 4516 -2035 5795 -59 165 -111 304 -116 309 -5 6 -14 -4
-23 -25z"/>
</g>
</svg>
