<?xml version="1.0" standalone="no"?>
<!DOCTYPE svg PUBLIC "-//W3C//DTD SVG 20010904//EN"
 "http://www.w3.org/TR/2001/REC-SVG-20010904/DTD/svg10.dtd">
<svg version="1.0" xmlns="http://www.w3.org/2000/svg"
 width="1280.000000pt" height="1280.000000pt" viewBox="0 0 1280.000000 1280.000000"
 preserveAspectRatio="xMidYMid meet">
<metadata>
Created by potrace 1.14, written by Peter Selinger 2001-2017
</metadata>
<g transform="translate(0.000000,1280.000000) scale(0.100000,-0.100000)"
fill="#000000" stroke="none">
<path d="M2150 6400 l0 -3060 575 0 575 0 0 1240 c0 682 1 1241 3 1242 1 1
485 4 1076 7 l1073 6 159 380 c88 209 195 463 238 565 l78 185 -171 6 c-94 4
-685 7 -1313 8 l-1143 1 0 1240 0 1240 -575 0 -575 0 0 -3060z"/>
<path d="M6818 8682 c-781 -1854 -2000 -4760 -2197 -5235 l-40 -97 573 0 c450
0 575 3 579 13 3 6 156 370 340 807 288 684 1104 2625 1971 4691 135 323 246
590 246 593 0 3 -258 6 -572 6 l-573 0 -327 -778z"/>
<path d="M8477 9419 c-8 -19 -150 -344 -317 -724 -298 -680 -302 -691 -292
-730 6 -22 177 -510 380 -1085 l370 -1045 -697 -6 c-383 -3 -759 -7 -836 -8
l-141 -1 -237 -563 c-130 -309 -237 -566 -237 -570 0 -4 576 -7 1279 -7 l1279
0 46 -125 c25 -69 111 -313 191 -543 80 -229 165 -473 189 -542 l44 -125 568
-3 c312 -1 571 1 575 5 4 5 -103 321 -237 703 -135 382 -426 1213 -649 1845
-908 2586 -1244 3536 -1256 3549 -4 5 -14 -7 -22 -25z"/>
</g>
</svg>
