<?xml version="1.0" standalone="no"?>
<!DOCTYPE svg PUBLIC "-//W3C//DTD SVG 20010904//EN"
 "http://www.w3.org/TR/2001/REC-SVG-20010904/DTD/svg10.dtd">
<svg version="1.0" xmlns="http://www.w3.org/2000/svg"
 width="1280.000000pt" height="1280.000000pt" viewBox="0 0 1280.000000 1280.000000"
 preserveAspectRatio="xMidYMid meet">
<metadata>
Created by potrace 1.14, written by Peter Selinger 2001-2017
</metadata>
<g transform="translate(0.000000,1280.000000) scale(0.100000,-0.100000)"
fill="#000000" stroke="none">
<path d="M6000 12789 c-1976 -122 -3786 -1157 -4903 -2804 -299 -441 -581
-1007 -757 -1520 -301 -875 -405 -1845 -299 -2790 207 -1852 1220 -3524 2774
-4578 441 -299 1007 -581 1520 -757 875 -301 1845 -405 2790 -299 1852 207
3524 1220 4578 2774 299 441 581 1007 757 1520 301 875 405 1845 299 2790
-207 1852 -1220 3524 -2774 4578 -441 299 -1007 581 -1520 757 -763 262 -1642
380 -2465 329z m710 -499 c1473 -82 2824 -684 3860 -1720 1275 -1276 1895
-3052 1689 -4845 -258 -2260 -1806 -4178 -3961 -4910 -1115 -379 -2339 -414
-3474 -100 -1875 520 -3383 1944 -4009 3787 -379 1115 -414 2339 -100 3474
520 1875 1944 3383 3787 4009 705 240 1472 346 2208 305z"/>
<path d="M2400 6400 l0 -2880 543 2 542 3 3 1168 2 1167 1008 0 1008 0 104
248 c92 218 332 786 347 820 4 9 -103 12 -518 12 -288 0 -845 3 -1236 7 l-713
6 0 1164 0 1163 -545 0 -545 0 0 -2880z"/>
<path d="M7086 9248 c-270 -634 -2396 -5702 -2396 -5713 0 -3 242 -5 539 -5
l538 0 28 63 c48 110 723 1716 1463 3477 921 2194 922 2197 922 2204 0 3 -243
6 -540 6 l-540 0 -14 -32z"/>
<path d="M8357 9250 c-8 -19 -144 -329 -301 -687 -157 -359 -286 -656 -286
-660 0 -3 160 -460 356 -1015 196 -555 353 -1012 349 -1016 -4 -4 -357 -9
-785 -11 l-778 -3 -222 -527 c-122 -289 -224 -532 -227 -538 -4 -10 243 -13
1202 -15 l1207 -3 28 -70 c24 -60 230 -647 373 -1062 l42 -123 543 0 c298 0
542 2 542 4 0 7 -973 2779 -1523 4341 -264 748 -475 1342 -495 1395 l-10 25
-15 -35z"/>
</g>
</svg>
